<?xml version="1.0" encoding="UTF-8"?>
<svg width="161.2mm" height="83.867mm" version="1.1" viewBox="0 0 161.2 83.867" xmlns="http://www.w3.org/2000/svg" xmlns:cc="http://creativecommons.org/ns#" xmlns:dc="http://purl.org/dc/elements/1.1/" xmlns:rdf="http://www.w3.org/1999/02/22-rdf-syntax-ns#">
 <defs>
  <marker id="marker3470" overflow="visible" orient="auto">
   <path transform="matrix(-1.1,0,0,-1.1,-1.1,0)" d="m8.7186 4.0337-10.926-4.0177 10.926-4.0177c-1.7455 2.3721-1.7354 5.6175-6e-7 8.0354z" fill-rule="evenodd" stroke="#000" stroke-linejoin="round" stroke-width=".625"/>
  </marker>
  <marker id="marker3252" overflow="visible" orient="auto">
   <path transform="matrix(1.1,0,0,1.1,1.1,0)" d="m8.7186 4.0337-10.926-4.0177 10.926-4.0177c-1.7455 2.3721-1.7354 5.6175-6e-7 8.0354z" fill-rule="evenodd" stroke="#000" stroke-linejoin="round" stroke-width=".625"/>
  </marker>
  <marker id="marker3014" overflow="visible" orient="auto">
   <path transform="matrix(-1.1,0,0,-1.1,-1.1,0)" d="m8.7186 4.0337-10.926-4.0177 10.926-4.0177c-1.7455 2.3721-1.7354 5.6175-6e-7 8.0354z" fill-rule="evenodd" stroke="#000" stroke-linejoin="round" stroke-width=".625"/>
  </marker>
  <marker id="Arrow2Lstart" overflow="visible" orient="auto">
   <path transform="matrix(1.1,0,0,1.1,1.1,0)" d="m8.7186 4.0337-10.926-4.0177 10.926-4.0177c-1.7455 2.3721-1.7354 5.6175-6e-7 8.0354z" fill-rule="evenodd" stroke="#000" stroke-linejoin="round" stroke-width=".625"/>
  </marker>
  <marker id="Arrow2Send" overflow="visible" orient="auto">
   <path transform="matrix(-.3 0 0 -.3 .69 0)" d="m8.7186 4.0337-10.926-4.0177 10.926-4.0177c-1.7455 2.3721-1.7354 5.6175-6e-7 8.0354z" fill="#5bd7ea" fill-rule="evenodd" stroke="#71d5de" stroke-linejoin="round" stroke-width=".625"/>
  </marker>
  <marker id="marker2356" overflow="visible" orient="auto">
   <path transform="matrix(-1.1,0,0,-1.1,-1.1,0)" d="m8.7186 4.0337-10.926-4.0177 10.926-4.0177c-1.7455 2.3721-1.7354 5.6175-6e-7 8.0354z" fill-rule="evenodd" stroke="#000" stroke-linejoin="round" stroke-width=".625"/>
  </marker>
 </defs>
 <metadata>
  <rdf:RDF>
   <cc:Work rdf:about="">
    <dc:format>image/svg+xml</dc:format>
    <dc:type rdf:resource="http://purl.org/dc/dcmitype/StillImage"/>
    <dc:title/>
   </cc:Work>
  </rdf:RDF>
 </metadata>
 <g transform="translate(-22.304 -20.943)">
  <path d="m25.932 68.648h151.79" fill="#5bd7ea" marker-end="url(#Arrow2Send)" stroke="#71d5de" stroke-width="4"/>
  <g fill="none" stroke="#000">
   <rect x="29.193" y="29.969" width="138.05" height="74.691" stroke-dasharray="2.4, 1.2" stroke-dashoffset="3" stroke-linecap="round" stroke-linejoin="round" stroke-width=".3"/>
   <g stroke-linecap="round" stroke-linejoin="round">
    <g stroke-width=".1">
     <rect x="72.983" y="37.734" width="18.789" height="13.51"/>
     <rect x="73.293" y="75.001" width="18.323" height="13.044"/>
     <rect x="110.87" y="51.088" width="8.6958" height="33.541"/>
     <rect x="110.87" y="51.088" width="8.6958" height="33.541"/>
     <rect x="124.79" y="51.088" width="8.6958" height="33.541"/>
    </g>
    <g stroke-width=".6">
     <circle cx="40.733" cy="30.11" r="2.8"/>
     <circle cx="58.88" cy="30.11" r="2.8"/>
     <circle cx="141.59" cy="53.549" r="2.8"/>
     <circle cx="141.59" cy="82.808" r="2.8"/>
    </g>
   </g>
   <g>
    <g stroke-width=".26458px">
     <path d="m40.684 33.23v48.293h32.153" marker-end="url(#marker2356)"/>
     <path d="m58.852 33.709v43h14.411" marker-start="url(#Arrow2Lstart)"/>
     <path d="m91.927 81.368h15.839v7.4535h7.4536v-3.8093" marker-end="url(#marker3014)"/>
     <path d="m129.19 85.061v9.0395h-46.74v-6.0228" marker-start="url(#marker3252)"/>
     <path d="m142.13 85.871v14.286h-74.225v-14.441h4.969" marker-end="url(#marker3470)"/>
    </g>
    <path d="m91.845 44.411h49.773v6.3666" stroke-width=".265"/>
    <path d="m138.67 53.572h-5.1736" stroke-width=".26458px"/>
   </g>
  </g>
  <g font-family="Palatino" font-size="3.0326px" font-weight="bold" stroke-width=".26458" text-anchor="middle">
   <text x="30.195322" y="74.982582" text-align="center" style="line-height:1.25" xml:space="preserve"><tspan x="30.195322" y="74.982582" stroke-width=".26458">AIR INLET</tspan></text>
   <g>
    <text x="52.420326" y="80.274246" text-align="center" style="font-variant-caps:normal;font-variant-east-asian:normal;font-variant-ligatures:normal;font-variant-numeric:normal;line-height:1.25" xml:space="preserve"><tspan x="52.420326" y="80.274246">Push-button</tspan></text>
    <text transform="rotate(-90)" x="-67.583466" y="116.53469" text-align="center" style="font-variant-caps:normal;font-variant-east-asian:normal;font-variant-ligatures:normal;font-variant-numeric:normal;line-height:1.25" xml:space="preserve"><tspan x="-67.583466" y="116.53469">FAN</tspan></text>
    <text x="82.462227" y="80.429527" text-align="center" style="font-variant-caps:normal;font-variant-east-asian:normal;font-variant-ligatures:normal;font-variant-numeric:normal;line-height:1.25" xml:space="preserve"><tspan x="82.462227" y="80.429527">Micro</tspan><tspan x="82.462227" y="84.220276">Controller</tspan></text>
    <text x="82.617508" y="43.698425" text-align="center" style="font-variant-caps:normal;font-variant-east-asian:normal;font-variant-ligatures:normal;font-variant-numeric:normal;line-height:1.25" xml:space="preserve"><tspan x="82.617508" y="43.698425">Power</tspan><tspan x="82.617508" y="47.489174">Control</tspan></text>
    <text x="100.04531" y="80.274246" text-align="center" style="font-variant-caps:normal;font-variant-east-asian:normal;font-variant-ligatures:normal;font-variant-numeric:normal;line-height:1.25" xml:space="preserve"><tspan x="100.04531" y="80.274246">Fan speed</tspan></text>
    <text x="153.49115" y="69.627594" text-align="center" style="font-variant-caps:normal;font-variant-east-asian:normal;font-variant-ligatures:normal;font-variant-numeric:normal;line-height:1.25" xml:space="preserve"><tspan x="153.49115" y="69.627594">AIR FLOW</tspan></text>
    <text x="106.92448" y="92.445076" text-align="center" style="font-variant-caps:normal;font-variant-east-asian:normal;font-variant-ligatures:normal;font-variant-numeric:normal;line-height:1.25" xml:space="preserve"><tspan x="106.92448" y="92.445076">Heater on/off</tspan></text>
    <text x="110.62865" y="98.795074" text-align="center" style="font-variant-caps:normal;font-variant-east-asian:normal;font-variant-ligatures:normal;font-variant-numeric:normal;line-height:1.25" xml:space="preserve"><tspan x="110.62865" y="98.795074">Temperature sense</tspan></text>
    <text x="153.49109" y="83.978416" text-align="center" style="font-variant-caps:normal;font-variant-east-asian:normal;font-variant-ligatures:normal;font-variant-numeric:normal;line-height:1.25" xml:space="preserve"><tspan x="153.49109" y="83.978416">Thermistor</tspan></text>
    <text x="148.19942" y="54.345089" text-align="center" style="font-variant-caps:normal;font-variant-east-asian:normal;font-variant-ligatures:normal;font-variant-numeric:normal;line-height:1.25" xml:space="preserve"><tspan x="148.19942" y="54.345089">PTC</tspan></text>
    <text x="110.09943" y="41.115917" text-align="center" style="font-variant-caps:normal;font-variant-east-asian:normal;font-variant-ligatures:normal;font-variant-numeric:normal;line-height:1.25" xml:space="preserve"><tspan x="110.09943" y="41.115917">24V</tspan></text>
    <text x="82.053604" y="24.71175" text-align="center" style="font-variant-caps:normal;font-variant-east-asian:normal;font-variant-ligatures:normal;font-variant-numeric:normal;line-height:1.25" xml:space="preserve"><tspan x="82.053604" y="24.71175">24V</tspan></text>
    <text x="86.816109" y="59.636753" text-align="center" style="font-variant-caps:normal;font-variant-east-asian:normal;font-variant-ligatures:normal;font-variant-numeric:normal;line-height:1.25" xml:space="preserve"><tspan x="86.816109" y="59.636753">5V</tspan></text>
    <text transform="rotate(-90)" x="-67.583466" y="130.29298" text-align="center" style="font-variant-caps:normal;font-variant-east-asian:normal;font-variant-ligatures:normal;font-variant-numeric:normal;line-height:1.25" xml:space="preserve"><tspan x="-67.583466" y="130.29298">HEATER</tspan></text>
    <text x="170.42448" y="78.623428" text-align="center" style="font-variant-caps:normal;font-variant-east-asian:normal;font-variant-ligatures:normal;font-variant-numeric:normal;line-height:1.25" xml:space="preserve"><tspan x="170.42448" y="78.623428">AIR OUTLET</tspan></text>
    <text x="42.36615" y="23.124254" text-align="center" style="font-variant-caps:normal;font-variant-east-asian:normal;font-variant-ligatures:normal;font-variant-numeric:normal;line-height:1.25" xml:space="preserve"><tspan x="42.36615" y="23.124254">Push-button</tspan><tspan x="42.36615" y="26.915005">or 3.5mm jack</tspan></text>
    <text x="59.828655" y="25.240925" text-align="center" style="font-variant-caps:normal;font-variant-east-asian:normal;font-variant-ligatures:normal;font-variant-numeric:normal;line-height:1.25" xml:space="preserve"><tspan x="59.828655" y="25.240925">LED</tspan></text>
   </g>
  </g>
  <path d="m82.455 74.984v-23.735m0-13.566v-12.043" fill="none" stroke="#000" stroke-width=".26458px"/>
 </g>
</svg>
