<svg width="141" height="32" viewBox="0 0 141 32" fill="none" xmlns="http://www.w3.org/2000/svg">
<g clip-path="url(#clip0)">
<path fill-rule="evenodd" clip-rule="evenodd" d="M31.3303 13.5985C30.3046 11.6688 27.99 11.9021 26.6237 12.6297C25.2872 13.3396 23.9804 14.9533 25.035 16.9383L31.3303 13.5985ZM26.4221 19.4982C27.6345 21.7785 29.8627 22.0561 31.2936 21.3049C33.1335 20.341 33.4334 19.253 33.5148 18.0764L38.7686 15.2861C39.3633 18.7499 38.0884 22.3082 34.5386 24.1937C31.3978 25.8625 24.2763 26.2554 21.3461 21.7125C18.5678 17.401 19.7077 12.3265 23.9963 9.75964C28.0516 7.33362 35.4392 7.84758 38.1331 13.2539L26.4221 19.4982ZM46.4191 11.6592C47.6603 9.51871 49.4625 8.8492 50.811 8.77338C51.5775 8.72908 52.2229 8.77043 52.9051 8.98015V14.1581C52.1822 13.8962 51.8367 13.655 50.5448 13.655C47.9264 13.655 46.4191 15.9225 46.4231 18.4725V24.8625H40.7096V8.96636H46.4181L46.4191 11.6592Z" fill="#FEFEFE"/>
<mask id="mask0" mask-type="alpha" maskUnits="userSpaceOnUse" x="0" y="8" width="19" height="24">
<path d="M0 8.3103H18.3374V31.7378H0V8.3103Z" fill="white"/>
</mask>
<g mask="url(#mask0)">
<path fill-rule="evenodd" clip-rule="evenodd" d="M12.707 16.5062C12.707 18.4153 11.1064 19.9641 9.13136 19.9641C7.15637 19.9641 5.55671 18.4153 5.55671 16.5062C5.55671 14.5991 7.15637 13.0513 9.13136 13.0513C11.1064 13.0513 12.707 14.5991 12.707 16.5062ZM18.3371 16.5358C18.3371 12.9056 15.9857 8.31055 11.0498 8.31055C9.18995 8.31055 6.76614 9.62694 5.74835 11.282L5.77616 10.0582V8.52223H0.00012207V31.7387H5.76226V21.8535C6.70159 23.2497 8.49388 24.8417 11.1103 24.8417C15.7087 24.8417 18.3371 20.673 18.3371 16.5358Z" fill="#FEFEFE"/>
</g>
<path fill-rule="evenodd" clip-rule="evenodd" d="M114.652 20.3053C112.677 20.3053 111.076 18.7575 111.076 16.8494C111.076 14.9403 112.677 13.3925 114.652 13.3925C116.626 13.3925 118.227 14.9403 118.227 16.8494C118.227 18.7575 116.626 20.3053 114.652 20.3053ZM116.63 8.5139C114.014 8.5139 112.221 10.107 111.282 11.5041V1.1748H105.538V24.8354H111.297V23.2974L111.269 22.0746C112.286 23.7307 114.711 25.0461 116.569 25.0461C121.505 25.0461 123.858 20.45 123.858 16.8208C123.858 12.6836 121.229 8.5139 116.63 8.5139ZM94.2396 26.7858C92.1425 26.7858 90.4425 25.1061 90.4425 23.0336C90.4425 20.961 92.1425 19.2813 94.2396 19.2813C96.3358 19.2813 98.0357 20.961 98.0357 23.0336C98.0357 25.1061 96.3358 26.7858 94.2396 26.7858ZM94.2396 14.5228C88.5966 14.5228 84.7231 18.0496 84.7231 23.0011C84.7231 27.9211 88.5599 31.4488 94.2396 31.4488C99.9203 31.4488 103.756 27.9211 103.756 23.0011C103.756 18.0496 99.8826 14.5228 94.2396 14.5228ZM60.9454 10.8882C61.8322 9.33455 63.8379 8.77826 65.662 8.77137C68.3172 8.76054 69.7708 9.6191 71.0428 11.4002C72.2354 9.75497 74.5639 8.73593 76.8308 8.73593C81.8005 8.73593 83.0328 11.6523 83.0328 15.3208V24.8565H77.1912V16.1124C77.1912 13.267 75.0603 13.0848 74.5102 13.0848C73.982 13.0848 71.862 13.1941 71.862 16.0908V24.8565H66.2965V16.1016C66.2965 13.2621 64.1438 13.0888 63.6334 13.0888C63.0992 13.0888 60.9673 13.2621 60.9673 16.1016V24.8565H55.1267V8.9801H60.9494L60.9454 10.8882Z" fill="#FEFEFE"/>
<path fill-rule="evenodd" clip-rule="evenodd" d="M125.833 24.8564H132.064V8.99268H125.833V24.8564Z" fill="#FEFEFE"/>
<path fill-rule="evenodd" clip-rule="evenodd" d="M134.842 24.8551H140.734V0.927979H134.842V24.8551Z" fill="#FEFEFE"/>
<path fill-rule="evenodd" clip-rule="evenodd" d="M135.587 4.36544C135.587 6.18397 134.101 7.65789 132.268 7.65789C130.435 7.65789 128.947 6.18397 128.947 4.36544C128.947 2.54691 130.435 1.07397 132.268 1.07397C134.101 1.07397 135.587 2.54691 135.587 4.36544Z" fill="#FEFEFE"/>
</g>
<defs>
<clipPath id="clip0">
<path d="M0 0.556641H141V31.8219H0V0.556641Z" fill="white"/>
</clipPath>
</defs>
</svg>
