<?xml version="1.0" encoding="UTF-8" standalone="no"?>
<!-- Created with Inkscape (http://www.inkscape.org/) -->

<svg
   xmlns:dc="http://purl.org/dc/elements/1.1/"
   xmlns:cc="http://creativecommons.org/ns#"
   xmlns:rdf="http://www.w3.org/1999/02/22-rdf-syntax-ns#"
   xmlns:svg="http://www.w3.org/2000/svg"
   xmlns="http://www.w3.org/2000/svg"
   xmlns:sodipodi="http://sodipodi.sourceforge.net/DTD/sodipodi-0.dtd"
   xmlns:inkscape="http://www.inkscape.org/namespaces/inkscape"
   version="1.1"
   id="svg2"
   xml:space="preserve"
   width="483.78"
   height="362.83466"
   viewBox="0 0 483.78 362.83466"
   sodipodi:docname="imgBackground.svg"
   inkscape:version="0.92.4 (f8dce91, 2019-08-02)"><metadata
     id="metadata8"><rdf:RDF><cc:Work
         rdf:about=""><dc:format>image/svg+xml</dc:format><dc:type
           rdf:resource="http://purl.org/dc/dcmitype/StillImage" /><dc:title></dc:title></cc:Work></rdf:RDF></metadata><defs
     id="defs6"><clipPath
       clipPathUnits="userSpaceOnUse"
       id="clipPath46"><path
         d="M 0,0 H 252 V 119.572 H 0 Z"
         id="path44"
         inkscape:connector-curvature="0" /></clipPath><clipPath
       clipPathUnits="userSpaceOnUse"
       id="clipPath50"><path
         d="M 0,0 H 252 V 120 H 0 Z"
         id="path48"
         inkscape:connector-curvature="0" /></clipPath></defs><sodipodi:namedview
     pagecolor="#ffffff"
     bordercolor="#666666"
     borderopacity="1"
     objecttolerance="10"
     gridtolerance="10"
     guidetolerance="10"
     inkscape:pageopacity="0"
     inkscape:pageshadow="2"
     inkscape:window-width="1920"
     inkscape:window-height="1130"
     id="namedview4"
     showgrid="false"
     inkscape:zoom="1.8397052"
     inkscape:cx="271.70261"
     inkscape:cy="175.62743"
     inkscape:window-x="0"
     inkscape:window-y="34"
     inkscape:window-maximized="1"
     inkscape:current-layer="g36" /><g
     id="g10"
     inkscape:groupmode="layer"
     inkscape:label="IntroEngQ&amp;A_2019"
     transform="matrix(1.3333333,0,0,-1.3333333,0,362.83467)"><g
       id="g12"><path
         d="M 0,0 H 362.835 V 272.126 H 0 Z"
         style="fill:#ffffff;fill-opacity:1;fill-rule:nonzero;stroke:none"
         id="path14"
         inkscape:connector-curvature="0" /></g><g
       id="g16"
       transform="translate(28.346,200.018)"><g
         id="g18"><g
           id="g20"><g
             id="g22" /><g
             id="g24"><g
               id="g26"><path
                 d="M -28.3468,-200.0204 H 334.49259 V -20.41386 H -28.3468 Z"
                 style="fill:#3673c2;fill-opacity:1;fill-rule:nonzero;stroke:none"
                 id="path28"
                 inkscape:connector-curvature="0" /></g><g
               id="g30"
               transform="translate(153.071,-110.216)"><g
                 id="g32" /><g
                 id="g34"
                 transform="translate(-153.071,110.216)" /></g></g></g></g><g
         id="g36"
         transform="translate(235.276)"><g
           id="g38"
           transform="scale(0.28122)"><g
             id="g40"><g
               id="g42" /><g
               id="g146"><g
                 clip-path="url(#clipPath46)"
                 id="g144"><g
                   id="g142"><g
                     transform="translate(0,-0.428001)"
                     id="g140"><g
                       id="g52" /><g
                       id="g138"><g
                         clip-path="url(#clipPath50)"
                         id="g136"><g
                           id="g134"><path
                             d="m 146.441,103.527 c 0.09,-0.609 0.028,-1.269 -0.418,-1.793 -0.468,-0.55 -12.687,-14.113 -12.687,-14.113 -3.445,-3.976 -4.172,-1.043 -5.652,2.168 -1.536,3.316 -2.243,5.125 -3.536,7.926 -1.382,3.004 -2.156,4.406 -5.336,0.93 -3.765,-4.129 -12.05,-13.504 -12.691,-13.977 -0.605,-0.453 -1.426,-0.168 -1.812,0.348 -3.727,4.988 -5.633,7.929 -6.633,14.464 -0.071,0.465 -0.242,1.122 0.504,2.055 10.547,12.52 23.621,17.563 39.867,18.465 0.801,0.09 1.363,-0.363 1.805,-0.773 2.66,-2.481 5.648,-9.7 6.589,-15.7"
                             style="fill:#fcd213;fill-opacity:1;fill-rule:nonzero;stroke:none"
                             id="path54"
                             inkscape:connector-curvature="0" /><path
                             d="m 105.555,76.168 c -0.059,0.836 -0.164,1.098 0.414,1.793 0.465,0.559 12.722,14.09 12.722,14.09 3.446,3.976 4.168,1.043 5.641,-2.172 1.531,-3.32 2.238,-5.125 3.523,-7.93 1.379,-3.004 2.161,-4.414 5.333,-0.937 3.773,4.125 11.773,12.945 12.343,13.496 0.801,0.781 1.848,0.652 2.184,0.105 3.426,-5.562 4.473,-8.09 6.605,-14.476 0.157,-0.446 0.242,-1.121 -0.508,-2.047 -10.562,-12.512 -23.64,-17.531 -39.886,-18.406 -0.809,-0.086 -1.367,0.367 -1.805,0.777 -2.656,2.484 -6.109,9.652 -6.566,15.707"
                             style="fill:#1478c7;fill-opacity:1;fill-rule:nonzero;stroke:none"
                             id="path56"
                             inkscape:connector-curvature="0" /><path
                             d="M 21.316,36.258 C 21.145,39.57 20.93,43.59 20.93,46.52 H 20.859 C 20.016,43.77 19.062,40.77 17.863,37.492 L 13.668,25.965 H 11.344 L 7.465,37.281 C 6.336,40.664 5.418,43.695 4.75,46.52 H 4.68 C 4.609,43.555 4.434,39.609 4.219,36.012 L 3.586,25.824 H 0.66 L 2.316,49.582 H 6.23 l 4.055,-11.488 c 0.985,-2.926 1.762,-5.535 2.395,-8.004 h 0.074 c 0.633,2.394 1.476,5.004 2.535,8.004 l 4.234,11.488 h 3.911 l 1.48,-23.758 h -3.031 l -0.567,10.434"
                             style="fill:#231f20;fill-opacity:1;fill-rule:nonzero;stroke:none"
                             id="path58"
                             inkscape:connector-curvature="0" /><path
                             d="m 31.996,46.023 c -1.164,0 -1.937,0.918 -1.937,2.012 0,1.09 0.808,1.973 2.007,1.973 1.2,0 1.973,-0.883 1.973,-1.973 0,-1.094 -0.773,-2.012 -2.008,-2.012 z m -1.48,-20.199 v 17.063 h 3.101 V 25.824 h -3.101"
                             style="fill:#231f20;fill-opacity:1;fill-rule:nonzero;stroke:none"
                             id="path60"
                             inkscape:connector-curvature="0" /><path
                             d="m 43.031,46.977 v -4.09 h 4.442 v -2.364 h -4.442 v -9.199 c 0,-2.113 0.598,-3.312 2.324,-3.312 0.848,0 1.34,0.07 1.801,0.207 l 0.137,-2.36 c -0.598,-0.211 -1.551,-0.421 -2.746,-0.421 -1.445,0 -2.609,0.492 -3.348,1.3 -0.847,0.953 -1.203,2.473 -1.203,4.481 v 9.304 h -2.641 v 2.364 h 2.641 v 3.136 l 3.035,0.954"
                             style="fill:#231f20;fill-opacity:1;fill-rule:nonzero;stroke:none"
                             id="path62"
                             inkscape:connector-curvature="0" /><path
                             d="m 55.227,46.977 v -4.09 h 4.441 v -2.364 h -4.441 v -9.199 c 0,-2.113 0.601,-3.312 2.324,-3.312 0.847,0 1.344,0.07 1.801,0.207 l 0.14,-2.36 c -0.597,-0.211 -1.551,-0.421 -2.75,-0.421 -1.445,0 -2.609,0.492 -3.347,1.3 -0.848,0.953 -1.2,2.473 -1.2,4.481 v 9.304 h -2.644 v 2.364 h 2.644 v 3.136 l 3.032,0.954"
                             style="fill:#231f20;fill-opacity:1;fill-rule:nonzero;stroke:none"
                             id="path64"
                             inkscape:connector-curvature="0" /><path
                             d="m 77.965,30.48 c 0,-1.765 0.035,-3.316 0.14,-4.656 h -2.75 l -0.175,2.785 h -0.075 c -0.773,-1.375 -2.605,-3.171 -5.636,-3.171 -2.68,0 -5.887,1.515 -5.887,7.472 v 9.977 h 3.102 v -9.41 c 0,-3.247 1.023,-5.465 3.808,-5.465 2.078,0 3.524,1.445 4.086,2.855 0.18,0.422 0.281,0.985 0.281,1.586 v 10.434 h 3.106 V 30.48"
                             style="fill:#231f20;fill-opacity:1;fill-rule:nonzero;stroke:none"
                             id="path66"
                             inkscape:connector-curvature="0" /><path
                             d="m 83.641,38.266 c 0,1.8 -0.039,3.211 -0.145,4.621 h 2.75 l 0.176,-2.785 h 0.07 c 0.848,1.586 2.824,3.171 5.645,3.171 2.359,0 6.023,-1.41 6.023,-7.261 V 25.824 h -3.101 v 9.836 c 0,2.75 -1.02,5.074 -3.946,5.074 -2.011,0 -3.597,-1.445 -4.16,-3.172 -0.141,-0.386 -0.211,-0.953 -0.211,-1.445 V 25.824 h -3.101 v 12.442"
                             style="fill:#231f20;fill-opacity:1;fill-rule:nonzero;stroke:none"
                             id="path68"
                             inkscape:connector-curvature="0" /><path
                             d="m 105.215,46.023 c -1.164,0 -1.942,0.918 -1.942,2.012 0,1.09 0.813,1.973 2.012,1.973 1.195,0 1.973,-0.883 1.973,-1.973 0,-1.094 -0.778,-2.012 -2.008,-2.012 z M 103.73,25.824 v 17.063 h 3.106 V 25.824 h -3.106"
                             style="fill:#231f20;fill-opacity:1;fill-rule:nonzero;stroke:none"
                             id="path70"
                             inkscape:connector-curvature="0" /><path
                             d="m 113.707,42.887 3.352,-9.555 c 0.562,-1.586 1.019,-2.996 1.375,-4.406 h 0.105 c 0.387,1.41 0.879,2.82 1.445,4.406 l 3.313,9.555 h 3.242 L 119.84,25.824 h -2.961 l -6.484,17.063 h 3.312"
                             style="fill:#231f20;fill-opacity:1;fill-rule:nonzero;stroke:none"
                             id="path72"
                             inkscape:connector-curvature="0" /><path
                             d="m 131.371,33.828 c 0.067,-4.195 2.715,-5.922 5.813,-5.922 2.222,0 3.597,0.387 4.726,0.844 l 0.563,-2.184 c -1.094,-0.496 -2.996,-1.093 -5.711,-1.093 -5.215,0 -8.391,3.492 -8.391,8.601 0,5.184 3.067,9.235 8.039,9.235 5.57,0 7.016,-4.899 7.016,-8.039 0,-0.633 -0.035,-1.125 -0.106,-1.481 z m 9.059,2.219 c 0.035,1.941 -0.813,5.039 -4.266,5.039 -3.172,0 -4.512,-2.887 -4.762,-5.039 h 9.028"
                             style="fill:#231f20;fill-opacity:1;fill-rule:nonzero;stroke:none"
                             id="path74"
                             inkscape:connector-curvature="0" /><path
                             d="m 147.832,37.562 c 0,2.008 -0.035,3.739 -0.144,5.325 h 2.714 l 0.145,-3.352 h 0.101 c 0.778,2.293 2.684,3.738 4.762,3.738 0.317,0 0.563,-0.035 0.848,-0.105 v -2.891 c -0.356,0.035 -0.672,0.071 -1.098,0.071 -2.183,0 -3.734,-1.657 -4.156,-3.95 -0.07,-0.457 -0.106,-0.949 -0.106,-1.48 v -9.094 h -3.101 l 0.035,11.738"
                             style="fill:#231f20;fill-opacity:1;fill-rule:nonzero;stroke:none"
                             id="path76"
                             inkscape:connector-curvature="0" /><path
                             d="m 159.426,28.965 c 0.953,-0.567 2.574,-1.203 4.129,-1.203 2.218,0 3.277,1.093 3.277,2.539 0,1.48 -0.883,2.293 -3.141,3.137 -3.097,1.128 -4.546,2.785 -4.546,4.828 0,2.75 2.257,5.007 5.89,5.007 1.727,0 3.242,-0.457 4.156,-1.054 l -0.738,-2.223 c -0.672,0.387 -1.906,0.988 -3.492,0.988 -1.832,0 -2.816,-1.058 -2.816,-2.328 0,-1.445 0.984,-2.082 3.207,-2.926 2.925,-1.093 4.476,-2.574 4.476,-5.148 0,-3.031 -2.363,-5.144 -6.348,-5.144 -1.867,0 -3.593,0.492 -4.792,1.199 l 0.738,2.328"
                             style="fill:#231f20;fill-opacity:1;fill-rule:nonzero;stroke:none"
                             id="path78"
                             inkscape:connector-curvature="0" /><path
                             d="m 175.82,46.023 c -1.164,0 -1.937,0.918 -1.937,2.012 0,1.09 0.808,1.973 2.008,1.973 1.199,0 1.972,-0.883 1.972,-1.973 0,-1.094 -0.773,-2.012 -2.008,-2.012 z m -1.48,-20.199 v 17.063 h 3.101 V 25.824 h -3.101"
                             style="fill:#231f20;fill-opacity:1;fill-rule:nonzero;stroke:none"
                             id="path80"
                             inkscape:connector-curvature="0" /><path
                             d="m 186.852,46.977 v -4.09 h 4.441 v -2.364 h -4.441 v -9.199 c 0,-2.113 0.601,-3.312 2.328,-3.312 0.843,0 1.34,0.07 1.797,0.207 l 0.14,-2.36 c -0.597,-0.211 -1.551,-0.421 -2.75,-0.421 -1.441,0 -2.609,0.492 -3.347,1.3 -0.844,0.953 -1.2,2.473 -1.2,4.481 v 9.304 h -2.64 v 2.364 h 2.64 v 3.136 l 3.032,0.954"
                             style="fill:#231f20;fill-opacity:1;fill-rule:nonzero;stroke:none"
                             id="path82"
                             inkscape:connector-curvature="0" /><path
                             d="m 196.871,33.828 c 0.07,-4.195 2.715,-5.922 5.817,-5.922 2.218,0 3.593,0.387 4.722,0.844 l 0.563,-2.184 c -1.094,-0.496 -2.996,-1.093 -5.711,-1.093 -5.219,0 -8.391,3.492 -8.391,8.601 0,5.184 3.07,9.235 8.039,9.235 5.57,0 7.016,-4.899 7.016,-8.039 0,-0.633 -0.035,-1.125 -0.106,-1.481 z m 9.059,2.219 c 0.035,1.941 -0.813,5.039 -4.266,5.039 -3.172,0 -4.512,-2.887 -4.762,-5.039 h 9.028"
                             style="fill:#231f20;fill-opacity:1;fill-rule:nonzero;stroke:none"
                             id="path84"
                             inkscape:connector-curvature="0" /><path
                             d="m 217.035,46.977 v -4.09 h 4.438 v -2.364 h -4.438 v -9.199 c 0,-2.113 0.598,-3.312 2.324,-3.312 0.844,0 1.34,0.07 1.797,0.207 l 0.141,-2.36 c -0.598,-0.211 -1.551,-0.421 -2.75,-0.421 -1.442,0 -2.606,0.492 -3.348,1.3 -0.847,0.953 -1.199,2.473 -1.199,4.481 v 9.304 h -2.645 v 2.364 H 214 v 3.136 l 3.035,0.954"
                             style="fill:#231f20;fill-opacity:1;fill-rule:nonzero;stroke:none"
                             id="path86"
                             inkscape:connector-curvature="0" /><path
                             d="m 227.051,33.828 c 0.07,-4.195 2.711,-5.922 5.816,-5.922 2.219,0 3.594,0.387 4.723,0.844 l 0.562,-2.184 c -1.093,-0.496 -2.996,-1.093 -5.707,-1.093 -5.218,0 -8.394,3.492 -8.394,8.601 0,5.184 3.07,9.235 8.039,9.235 5.57,0 7.015,-4.899 7.015,-8.039 0,-0.633 -0.035,-1.125 -0.109,-1.481 z m 9.058,2.219 c 0.036,1.941 -0.812,5.039 -4.265,5.039 -3.172,0 -4.512,-2.887 -4.758,-5.039 h 9.023"
                             style="fill:#231f20;fill-opacity:1;fill-rule:nonzero;stroke:none"
                             id="path88"
                             inkscape:connector-curvature="0" /><path
                             d="m 247.215,46.977 v -4.09 h 4.437 v -2.364 h -4.437 v -9.199 c 0,-2.113 0.597,-3.312 2.324,-3.312 0.844,0 1.34,0.07 1.797,0.207 l 0.144,-2.36 c -0.601,-0.211 -1.554,-0.421 -2.75,-0.421 -1.449,0 -2.609,0.492 -3.351,1.3 -0.848,0.953 -1.199,2.473 -1.199,4.481 v 9.304 h -2.645 v 2.364 h 2.645 v 3.136 l 3.035,0.954"
                             style="fill:#231f20;fill-opacity:1;fill-rule:nonzero;stroke:none"
                             id="path90"
                             inkscape:connector-curvature="0" /><g
                             transform="translate(0,120)"
                             id="g94"><path
                               d="M 0,-102.109 H 252"
                               style="fill:none;stroke:#231f20;stroke-width:0.41999999;stroke-linecap:butt;stroke-linejoin:miter;stroke-miterlimit:4;stroke-dasharray:none;stroke-opacity:1"
                               id="path92"
                               inkscape:connector-curvature="0" /></g><path
                             d="M 23.543,4.941 C 23.469,6.32 23.379,7.996 23.379,9.219 H 23.352 C 22.996,8.07 22.602,6.82 22.102,5.453 L 20.352,0.648 H 19.383 L 17.766,5.367 C 17.293,6.777 16.91,8.043 16.633,9.219 H 16.602 C 16.574,7.984 16.5,6.336 16.41,4.836 L 16.148,0.59 h -1.222 l 0.691,9.906 h 1.633 l 1.691,-4.793 c 0.411,-1.219 0.735,-2.305 1,-3.336 h 0.028 c 0.265,1 0.617,2.09 1.058,3.336 l 1.766,4.793 h 1.629 L 25.039,0.59 h -1.262 l -0.234,4.351"
                             style="fill:#231f20;fill-opacity:1;fill-rule:nonzero;stroke:none"
                             id="path96"
                             inkscape:connector-curvature="0" /><path
                             d="m 30.23,10.496 h 1.293 V 0.59 H 30.23 Z"
                             style="fill:#231f20;fill-opacity:1;fill-rule:nonzero;stroke:none"
                             id="path98"
                             inkscape:connector-curvature="0" /><path
                             d="m 36.977,10.363 c 0.796,0.117 1.722,0.207 2.734,0.207 1.836,0 3.144,-0.41 4.012,-1.218 C 44.621,8.543 45.137,7.383 45.137,5.777 45.137,4.16 44.621,2.84 43.711,1.926 42.77,1 41.238,0.5 39.316,0.5 38.391,0.5 37.641,0.531 36.977,0.617 Z M 38.27,1.59 c 0.324,-0.059 0.796,-0.059 1.296,-0.059 2.731,-0.015 4.215,1.528 4.215,4.203 0.016,2.368 -1.308,3.821 -4.011,3.821 -0.661,0 -1.161,-0.059 -1.5,-0.129 V 1.59"
                             style="fill:#231f20;fill-opacity:1;fill-rule:nonzero;stroke:none"
                             id="path100"
                             inkscape:connector-curvature="0" /><path
                             d="M 55.324,2.148 C 55.895,1.781 56.719,1.5 57.602,1.5 c 1.308,0 2.07,0.676 2.07,1.691 0,0.911 -0.527,1.454 -1.867,1.954 -1.614,0.589 -2.614,1.441 -2.614,2.824 0,1.543 1.278,2.691 3.204,2.691 1,0 1.75,-0.234 2.175,-0.484 L 60.219,9.129 c -0.309,0.191 -0.973,0.473 -1.867,0.473 -1.356,0 -1.868,-0.809 -1.868,-1.485 0,-0.929 0.602,-1.383 1.969,-1.914 1.676,-0.66 2.516,-1.453 2.516,-2.91 0,-1.527 -1.117,-2.863 -3.457,-2.863 -0.953,0 -1.996,0.293 -2.528,0.644 l 0.34,1.074"
                             style="fill:#231f20;fill-opacity:1;fill-rule:nonzero;stroke:none"
                             id="path102"
                             inkscape:connector-curvature="0" /><path
                             d="m 67.582,0.59 -2.512,9.906 h 1.352 l 1.176,-5.012 c 0.293,-1.25 0.558,-2.468 0.734,-3.425 h 0.027 c 0.164,0.984 0.473,2.16 0.809,3.441 l 1.324,4.996 h 1.34 l 1.203,-5.027 c 0.281,-1.192 0.547,-2.352 0.692,-3.395 h 0.031 c 0.203,1.086 0.484,2.192 0.793,3.426 l 1.308,4.996 h 1.309 L 74.359,0.59 h -1.336 l -1.25,5.144 c -0.308,1.278 -0.515,2.25 -0.648,3.25 h -0.031 c -0.16,-1 -0.395,-1.957 -0.762,-3.234 L 68.918,0.59 h -1.336"
                             style="fill:#231f20;fill-opacity:1;fill-rule:nonzero;stroke:none"
                             id="path104"
                             inkscape:connector-curvature="0" /><path
                             d="m 86.75,5.234 h -3.836 v -3.57 h 4.293 V 0.59 h -5.586 v 9.906 h 5.363 v -1.07 h -4.07 V 6.293 H 86.75 V 5.234"
                             style="fill:#231f20;fill-opacity:1;fill-rule:nonzero;stroke:none"
                             id="path106"
                             inkscape:connector-curvature="0" /><path
                             d="m 92.086,10.363 c 0.797,0.117 1.719,0.207 2.734,0.207 1.836,0 3.149,-0.41 4.016,-1.218 0.894,-0.809 1.41,-1.969 1.41,-3.575 C 100.246,4.16 99.73,2.84 98.82,1.926 97.879,1 96.348,0.5 94.422,0.5 93.496,0.5 92.746,0.531 92.086,0.617 Z M 93.383,1.59 c 0.32,-0.059 0.793,-0.059 1.289,-0.059 2.734,-0.015 4.223,1.528 4.223,4.203 0.011,2.368 -1.309,3.821 -4.016,3.821 -0.66,0 -1.16,-0.059 -1.496,-0.129 V 1.59"
                             style="fill:#231f20;fill-opacity:1;fill-rule:nonzero;stroke:none"
                             id="path108"
                             inkscape:connector-curvature="0" /><path
                             d="m 110.242,5.234 h -3.836 v -3.57 h 4.293 V 0.59 h -5.586 v 9.906 h 5.364 v -1.07 h -4.071 V 6.293 h 3.836 V 5.234"
                             style="fill:#231f20;fill-opacity:1;fill-rule:nonzero;stroke:none"
                             id="path110"
                             inkscape:connector-curvature="0" /><path
                             d="m 115.594,0.59 v 9.906 h 1.41 l 3.16,-5.012 c 0.719,-1.16 1.309,-2.191 1.766,-3.218 l 0.043,0.015 c -0.118,1.321 -0.149,2.528 -0.149,4.055 v 4.16 h 1.207 V 0.59 h -1.293 l -3.148,5.027 c -0.692,1.102 -1.352,2.235 -1.836,3.309 L 116.711,8.91 c 0.07,-1.25 0.086,-2.441 0.086,-4.086 V 0.59 h -1.203"
                             style="fill:#231f20;fill-opacity:1;fill-rule:nonzero;stroke:none"
                             id="path112"
                             inkscape:connector-curvature="0" /><path
                             d="M 135.246,10.496 V 4.617 c 0,-2.207 0.984,-3.144 2.309,-3.144 1.453,0 2.41,0.968 2.41,3.144 v 5.879 h 1.293 V 4.707 c 0,-3.043 -1.602,-4.277 -3.75,-4.277 -2.028,0 -3.555,1.144 -3.555,4.23 v 5.836 h 1.293"
                             style="fill:#231f20;fill-opacity:1;fill-rule:nonzero;stroke:none"
                             id="path114"
                             inkscape:connector-curvature="0" /><path
                             d="m 146.711,0.59 v 9.906 h 1.414 l 3.16,-5.012 c 0.719,-1.16 1.309,-2.191 1.762,-3.218 l 0.043,0.015 c -0.117,1.321 -0.145,2.528 -0.145,4.055 v 4.16 h 1.203 V 0.59 h -1.293 l -3.144,5.027 c -0.691,1.102 -1.352,2.235 -1.836,3.309 L 147.828,8.91 c 0.074,-1.25 0.09,-2.441 0.09,-4.086 V 0.59 h -1.207"
                             style="fill:#231f20;fill-opacity:1;fill-rule:nonzero;stroke:none"
                             id="path116"
                             inkscape:connector-curvature="0" /><path
                             d="m 159.605,10.496 h 1.293 V 0.59 h -1.293 z"
                             style="fill:#231f20;fill-opacity:1;fill-rule:nonzero;stroke:none"
                             id="path118"
                             inkscape:connector-curvature="0" /><path
                             d="m 168.543,0.59 -3.25,9.906 h 1.395 l 1.546,-4.879 c 0.411,-1.34 0.778,-2.558 1.055,-3.703 h 0.031 c 0.282,1.145 0.676,2.395 1.133,3.688 l 1.676,4.894 h 1.367 L 169.953,0.59 h -1.41"
                             style="fill:#231f20;fill-opacity:1;fill-rule:nonzero;stroke:none"
                             id="path120"
                             inkscape:connector-curvature="0" /><path
                             d="m 182.918,5.234 h -3.836 v -3.57 h 4.293 V 0.59 h -5.586 v 9.906 h 5.363 v -1.07 h -4.07 V 6.293 h 3.836 V 5.234"
                             style="fill:#231f20;fill-opacity:1;fill-rule:nonzero;stroke:none"
                             id="path122"
                             inkscape:connector-curvature="0" /><path
                             d="m 188.27,10.352 c 0.644,0.128 1.585,0.218 2.453,0.218 1.367,0 2.265,-0.265 2.882,-0.824 0.485,-0.426 0.778,-1.101 0.778,-1.879 0,-1.297 -0.836,-2.164 -1.867,-2.515 V 5.309 c 0.75,-0.266 1.207,-0.969 1.457,-2 0.324,-1.383 0.558,-2.336 0.75,-2.719 h -1.325 c -0.16,0.277 -0.382,1.133 -0.644,2.367 -0.297,1.367 -0.84,1.879 -2,1.926 h -1.207 V 0.59 h -1.277 z m 1.277,-4.5 h 1.308 c 1.368,0 2.235,0.75 2.235,1.882 0,1.278 -0.926,1.836 -2.278,1.836 -0.617,0 -1.042,-0.058 -1.265,-0.117 V 5.852"
                             style="fill:#231f20;fill-opacity:1;fill-rule:nonzero;stroke:none"
                             id="path124"
                             inkscape:connector-curvature="0" /><path
                             d="m 199.25,2.148 c 0.574,-0.367 1.395,-0.648 2.277,-0.648 1.309,0 2.075,0.676 2.075,1.691 0,0.911 -0.532,1.454 -1.868,1.954 -1.617,0.589 -2.617,1.441 -2.617,2.824 0,1.543 1.278,2.691 3.203,2.691 1,0 1.75,-0.234 2.176,-0.484 l -0.351,-1.047 c -0.309,0.191 -0.969,0.473 -1.868,0.473 -1.351,0 -1.867,-0.809 -1.867,-1.485 0,-0.929 0.602,-1.383 1.969,-1.914 1.676,-0.66 2.516,-1.453 2.516,-2.91 0,-1.527 -1.118,-2.863 -3.454,-2.863 -0.957,0 -2,0.293 -2.531,0.644 l 0.34,1.074"
                             style="fill:#231f20;fill-opacity:1;fill-rule:nonzero;stroke:none"
                             id="path126"
                             inkscape:connector-curvature="0" /><path
                             d="m 209.879,10.496 h 1.293 V 0.59 h -1.293 z"
                             style="fill:#231f20;fill-opacity:1;fill-rule:nonzero;stroke:none"
                             id="path128"
                             inkscape:connector-curvature="0" /><path
                             d="m 218.52,9.41 h -3.012 v 1.086 h 7.336 V 9.41 h -3.028 V 0.59 h -1.296 v 8.82"
                             style="fill:#231f20;fill-opacity:1;fill-rule:nonzero;stroke:none"
                             id="path130"
                             inkscape:connector-curvature="0" /><path
                             d="m 229.926,0.59 v 4.203 l -3.145,5.703 h 1.469 l 1.398,-2.734 c 0.368,-0.75 0.676,-1.352 0.985,-2.043 h 0.027 c 0.266,0.648 0.617,1.293 1,2.043 l 1.426,2.734 h 1.441 L 231.219,4.809 V 0.59 h -1.293"
                             style="fill:#231f20;fill-opacity:1;fill-rule:nonzero;stroke:none"
                             id="path132"
                             inkscape:connector-curvature="0" /></g></g></g></g></g></g></g></g></g></g></g></g></svg>